<svg width="86" height="60" viewBox="0 0 86 60" fill="none" xmlns="http://www.w3.org/2000/svg">
<path fill-rule="evenodd" clip-rule="evenodd" d="M19.468 2.98684C17.3284 5.55961 18.1313 6.62909 24.0462 9.09663C36.9566 14.4805 37.5012 17.2423 27.6559 27.3637C18.3422 36.9375 14.9457 38.1745 10.9981 33.4284C7.17532 28.8305 10.4707 23.803 17.7847 23.0772C26.3192 22.231 27.8345 17.6997 20.5119 14.9229C16.2952 13.323 13.2732 13.5743 8.75953 15.9022C-1.1116 20.9962 -2.7819 30.1104 4.47185 39.3084C11.6524 48.4161 20.344 47.0503 32.7464 34.8608C41.085 26.6657 43.5431 25.2763 45.7364 27.5162C47.919 29.7475 46.238 32.3116 36.9889 40.8439C30.6908 46.6551 23.6695 51.4098 21.3836 51.4098C16.4545 51.4098 16.009 54.1673 20.3548 57.7665C25.4905 62.0187 31.9005 58.3292 50.7732 40.2511C69.4435 22.3685 76.4217 19.5681 76.4217 29.9644C76.4217 34.4291 75.1884 35.4793 68.8882 36.377C64.1054 37.0577 61.3546 38.6276 61.3546 40.6721C61.3546 45.5663 76.8372 46.2299 82.0138 41.5547C87.1947 36.8773 87.354 25.5039 82.3238 19.3061C77.6809 13.585 66.189 12.7861 60.64 17.7963C55.5925 22.3535 51.1541 22.3535 52.0496 17.7942C52.4327 15.8421 56.3222 12.3931 60.6917 10.1317C65.8661 7.45375 68.2274 4.94541 67.4568 2.94389C65.6444 -1.77213 58.2357 -0.724122 50.2071 5.38566L42.9576 10.9027L36.3862 5.38566C28.9947 -0.820762 23.3058 -1.62609 19.468 2.98684ZM50.3771 49.6102C48.7047 52.3096 56.8129 60 61.3288 60C64.0581 60 70.2485 53.974 68.6579 52.8658C66.486 51.3583 55.5602 47.1147 53.8469 47.1147C52.7879 47.1147 51.2273 48.2379 50.3771 49.6102Z" fill="#CF028B"/>
</svg>
